<mxfile host="Electron" modified="2023-12-07T09:06:25.474Z" agent="Mozilla/5.0 (X11; Linux x86_64) AppleWebKit/537.36 (KHTML, like Gecko) draw.io/22.1.2 Chrome/114.0.5735.289 Electron/25.9.4 Safari/537.36" etag="AZhGlC5jlkIGGAAaKMZg" version="22.1.2" type="device">
  <diagram name="Page-1" id="vLV0iY_1DrnxrVqdGhRl">
    <mxGraphModel dx="2523" dy="1183" grid="1" gridSize="10" guides="1" tooltips="1" connect="1" arrows="1" fold="1" page="1" pageScale="1" pageWidth="850" pageHeight="1100" math="0" shadow="0">
      <root>
        <mxCell id="0" />
        <mxCell id="1" parent="0" />
        <mxCell id="2X9Yrv-z0Vedw-TM2JOu-9" style="edgeStyle=orthogonalEdgeStyle;rounded=0;orthogonalLoop=1;jettySize=auto;html=1;exitX=0;exitY=0.5;exitDx=0;exitDy=0;entryX=0.5;entryY=1;entryDx=0;entryDy=0;" parent="1" source="2X9Yrv-z0Vedw-TM2JOu-1" target="2X9Yrv-z0Vedw-TM2JOu-8" edge="1">
          <mxGeometry relative="1" as="geometry" />
        </mxCell>
        <mxCell id="2X9Yrv-z0Vedw-TM2JOu-53" style="edgeStyle=orthogonalEdgeStyle;rounded=0;orthogonalLoop=1;jettySize=auto;html=1;exitX=0.25;exitY=0;exitDx=0;exitDy=0;entryX=0.5;entryY=1;entryDx=0;entryDy=0;" parent="1" source="2X9Yrv-z0Vedw-TM2JOu-1" target="2X9Yrv-z0Vedw-TM2JOu-4" edge="1">
          <mxGeometry relative="1" as="geometry" />
        </mxCell>
        <mxCell id="2X9Yrv-z0Vedw-TM2JOu-54" style="edgeStyle=orthogonalEdgeStyle;rounded=0;orthogonalLoop=1;jettySize=auto;html=1;exitX=0.5;exitY=0;exitDx=0;exitDy=0;entryX=0.5;entryY=1;entryDx=0;entryDy=0;" parent="1" source="2X9Yrv-z0Vedw-TM2JOu-1" target="2X9Yrv-z0Vedw-TM2JOu-5" edge="1">
          <mxGeometry relative="1" as="geometry" />
        </mxCell>
        <mxCell id="2X9Yrv-z0Vedw-TM2JOu-66" style="edgeStyle=orthogonalEdgeStyle;rounded=0;orthogonalLoop=1;jettySize=auto;html=1;exitX=0.5;exitY=1;exitDx=0;exitDy=0;entryX=0;entryY=0.5;entryDx=0;entryDy=0;" parent="1" source="2X9Yrv-z0Vedw-TM2JOu-1" target="2X9Yrv-z0Vedw-TM2JOu-35" edge="1">
          <mxGeometry relative="1" as="geometry" />
        </mxCell>
        <mxCell id="2X9Yrv-z0Vedw-TM2JOu-70" style="edgeStyle=orthogonalEdgeStyle;rounded=0;orthogonalLoop=1;jettySize=auto;html=1;exitX=0;exitY=0.75;exitDx=0;exitDy=0;entryX=1;entryY=0.5;entryDx=0;entryDy=0;" parent="1" source="2X9Yrv-z0Vedw-TM2JOu-1" target="2X9Yrv-z0Vedw-TM2JOu-12" edge="1">
          <mxGeometry relative="1" as="geometry" />
        </mxCell>
        <mxCell id="2X9Yrv-z0Vedw-TM2JOu-93" style="edgeStyle=orthogonalEdgeStyle;rounded=0;orthogonalLoop=1;jettySize=auto;html=1;exitX=0.25;exitY=1;exitDx=0;exitDy=0;entryX=0.5;entryY=0;entryDx=0;entryDy=0;" parent="1" source="2X9Yrv-z0Vedw-TM2JOu-1" target="2X9Yrv-z0Vedw-TM2JOu-71" edge="1">
          <mxGeometry relative="1" as="geometry">
            <Array as="points">
              <mxPoint x="400" y="350" />
              <mxPoint x="70" y="350" />
            </Array>
          </mxGeometry>
        </mxCell>
        <mxCell id="2X9Yrv-z0Vedw-TM2JOu-1" value="Driver" style="rounded=0;whiteSpace=wrap;html=1;" parent="1" vertex="1">
          <mxGeometry x="360" y="180" width="160" height="70" as="geometry" />
        </mxCell>
        <mxCell id="2X9Yrv-z0Vedw-TM2JOu-3" value="&lt;u&gt;MicroBus ID&lt;/u&gt;" style="ellipse;whiteSpace=wrap;html=1;" parent="1" vertex="1">
          <mxGeometry x="-470" y="81" width="130" height="70" as="geometry" />
        </mxCell>
        <mxCell id="2X9Yrv-z0Vedw-TM2JOu-4" value="First name" style="ellipse;whiteSpace=wrap;html=1;" parent="1" vertex="1">
          <mxGeometry x="290" y="40" width="120" height="80" as="geometry" />
        </mxCell>
        <mxCell id="2X9Yrv-z0Vedw-TM2JOu-5" value="Family name" style="ellipse;whiteSpace=wrap;html=1;" parent="1" vertex="1">
          <mxGeometry x="500" y="30" width="120" height="80" as="geometry" />
        </mxCell>
        <mxCell id="2X9Yrv-z0Vedw-TM2JOu-8" value="&lt;b&gt;&lt;u&gt;Phone number&lt;/u&gt;&lt;/b&gt;" style="ellipse;whiteSpace=wrap;html=1;" parent="1" vertex="1">
          <mxGeometry x="150" y="40" width="120" height="80" as="geometry" />
        </mxCell>
        <mxCell id="2X9Yrv-z0Vedw-TM2JOu-15" style="edgeStyle=orthogonalEdgeStyle;rounded=0;orthogonalLoop=1;jettySize=auto;html=1;" parent="1" source="2X9Yrv-z0Vedw-TM2JOu-11" target="2X9Yrv-z0Vedw-TM2JOu-3" edge="1">
          <mxGeometry relative="1" as="geometry" />
        </mxCell>
        <mxCell id="2X9Yrv-z0Vedw-TM2JOu-17" style="edgeStyle=orthogonalEdgeStyle;rounded=0;orthogonalLoop=1;jettySize=auto;html=1;" parent="1" source="2X9Yrv-z0Vedw-TM2JOu-11" target="2X9Yrv-z0Vedw-TM2JOu-16" edge="1">
          <mxGeometry relative="1" as="geometry" />
        </mxCell>
        <mxCell id="2X9Yrv-z0Vedw-TM2JOu-11" value="MicroBus" style="rounded=0;whiteSpace=wrap;html=1;" parent="1" vertex="1">
          <mxGeometry x="-310" y="161" width="160" height="80" as="geometry" />
        </mxCell>
        <mxCell id="2X9Yrv-z0Vedw-TM2JOu-12" value="Has" style="rhombus;whiteSpace=wrap;html=1;" parent="1" vertex="1">
          <mxGeometry x="-280" y="280" width="80" height="80" as="geometry" />
        </mxCell>
        <mxCell id="2X9Yrv-z0Vedw-TM2JOu-16" value="color" style="ellipse;whiteSpace=wrap;html=1;" parent="1" vertex="1">
          <mxGeometry x="-120" y="76" width="120" height="80" as="geometry" />
        </mxCell>
        <mxCell id="2X9Yrv-z0Vedw-TM2JOu-23" style="edgeStyle=orthogonalEdgeStyle;rounded=0;orthogonalLoop=1;jettySize=auto;html=1;exitX=0;exitY=0.5;exitDx=0;exitDy=0;entryX=0.5;entryY=1;entryDx=0;entryDy=0;" parent="1" source="2X9Yrv-z0Vedw-TM2JOu-21" target="2X9Yrv-z0Vedw-TM2JOu-22" edge="1">
          <mxGeometry relative="1" as="geometry" />
        </mxCell>
        <mxCell id="2X9Yrv-z0Vedw-TM2JOu-25" style="edgeStyle=orthogonalEdgeStyle;rounded=0;orthogonalLoop=1;jettySize=auto;html=1;entryX=0.5;entryY=1;entryDx=0;entryDy=0;" parent="1" source="2X9Yrv-z0Vedw-TM2JOu-21" target="2X9Yrv-z0Vedw-TM2JOu-24" edge="1">
          <mxGeometry relative="1" as="geometry" />
        </mxCell>
        <mxCell id="2X9Yrv-z0Vedw-TM2JOu-41" style="edgeStyle=orthogonalEdgeStyle;rounded=0;orthogonalLoop=1;jettySize=auto;html=1;exitX=0.75;exitY=0;exitDx=0;exitDy=0;entryX=0.5;entryY=1;entryDx=0;entryDy=0;" parent="1" source="2X9Yrv-z0Vedw-TM2JOu-21" target="2X9Yrv-z0Vedw-TM2JOu-40" edge="1">
          <mxGeometry relative="1" as="geometry" />
        </mxCell>
        <mxCell id="2X9Yrv-z0Vedw-TM2JOu-67" style="edgeStyle=orthogonalEdgeStyle;rounded=0;orthogonalLoop=1;jettySize=auto;html=1;exitX=0.5;exitY=1;exitDx=0;exitDy=0;entryX=1;entryY=0.5;entryDx=0;entryDy=0;" parent="1" source="2X9Yrv-z0Vedw-TM2JOu-21" target="2X9Yrv-z0Vedw-TM2JOu-35" edge="1">
          <mxGeometry relative="1" as="geometry" />
        </mxCell>
        <mxCell id="2X9Yrv-z0Vedw-TM2JOu-92" style="edgeStyle=orthogonalEdgeStyle;rounded=0;orthogonalLoop=1;jettySize=auto;html=1;exitX=1;exitY=0.5;exitDx=0;exitDy=0;entryX=1;entryY=0.5;entryDx=0;entryDy=0;" parent="1" source="2X9Yrv-z0Vedw-TM2JOu-21" target="2X9Yrv-z0Vedw-TM2JOu-88" edge="1">
          <mxGeometry relative="1" as="geometry">
            <Array as="points">
              <mxPoint x="1070" y="201" />
              <mxPoint x="1070" y="910" />
            </Array>
          </mxGeometry>
        </mxCell>
        <mxCell id="2X9Yrv-z0Vedw-TM2JOu-21" value="Passenger" style="rounded=0;whiteSpace=wrap;html=1;" parent="1" vertex="1">
          <mxGeometry x="820" y="161" width="190" height="80" as="geometry" />
        </mxCell>
        <mxCell id="2X9Yrv-z0Vedw-TM2JOu-22" value="&lt;b&gt;&lt;u&gt;Phone number&lt;/u&gt;&lt;/b&gt;" style="ellipse;whiteSpace=wrap;html=1;" parent="1" vertex="1">
          <mxGeometry x="720" y="31" width="120" height="80" as="geometry" />
        </mxCell>
        <mxCell id="2X9Yrv-z0Vedw-TM2JOu-24" value="First Name" style="ellipse;whiteSpace=wrap;html=1;" parent="1" vertex="1">
          <mxGeometry x="855" y="31" width="120" height="80" as="geometry" />
        </mxCell>
        <mxCell id="2X9Yrv-z0Vedw-TM2JOu-33" style="edgeStyle=orthogonalEdgeStyle;rounded=0;orthogonalLoop=1;jettySize=auto;html=1;exitX=1;exitY=0.5;exitDx=0;exitDy=0;entryX=0;entryY=0.5;entryDx=0;entryDy=0;" parent="1" source="2X9Yrv-z0Vedw-TM2JOu-28" target="2X9Yrv-z0Vedw-TM2JOu-32" edge="1">
          <mxGeometry relative="1" as="geometry" />
        </mxCell>
        <mxCell id="2X9Yrv-z0Vedw-TM2JOu-57" style="edgeStyle=orthogonalEdgeStyle;rounded=0;orthogonalLoop=1;jettySize=auto;html=1;exitX=0;exitY=0.5;exitDx=0;exitDy=0;entryX=1;entryY=0.5;entryDx=0;entryDy=0;" parent="1" source="2X9Yrv-z0Vedw-TM2JOu-28" target="2X9Yrv-z0Vedw-TM2JOu-56" edge="1">
          <mxGeometry relative="1" as="geometry">
            <mxPoint x="430" y="560" as="targetPoint" />
          </mxGeometry>
        </mxCell>
        <mxCell id="2X9Yrv-z0Vedw-TM2JOu-59" style="edgeStyle=orthogonalEdgeStyle;rounded=0;orthogonalLoop=1;jettySize=auto;html=1;exitX=0.5;exitY=1;exitDx=0;exitDy=0;entryX=0.5;entryY=0;entryDx=0;entryDy=0;" parent="1" source="2X9Yrv-z0Vedw-TM2JOu-28" target="2X9Yrv-z0Vedw-TM2JOu-58" edge="1">
          <mxGeometry relative="1" as="geometry" />
        </mxCell>
        <mxCell id="2X9Yrv-z0Vedw-TM2JOu-28" value="Bank Account" style="rounded=0;whiteSpace=wrap;html=1;" parent="1" vertex="1">
          <mxGeometry x="550" y="527" width="200" height="80" as="geometry" />
        </mxCell>
        <mxCell id="2X9Yrv-z0Vedw-TM2JOu-31" style="edgeStyle=orthogonalEdgeStyle;rounded=0;orthogonalLoop=1;jettySize=auto;html=1;exitX=0.5;exitY=1;exitDx=0;exitDy=0;entryX=0.5;entryY=0;entryDx=0;entryDy=0;" parent="1" target="2X9Yrv-z0Vedw-TM2JOu-28" edge="1">
          <mxGeometry relative="1" as="geometry">
            <mxPoint x="650" y="440" as="sourcePoint" />
            <Array as="points">
              <mxPoint x="650" y="460" />
              <mxPoint x="650" y="460" />
            </Array>
          </mxGeometry>
        </mxCell>
        <mxCell id="2X9Yrv-z0Vedw-TM2JOu-48" value="1" style="edgeLabel;html=1;align=center;verticalAlign=middle;resizable=0;points=[];" parent="2X9Yrv-z0Vedw-TM2JOu-31" vertex="1" connectable="0">
          <mxGeometry x="0.2284" relative="1" as="geometry">
            <mxPoint as="offset" />
          </mxGeometry>
        </mxCell>
        <mxCell id="2X9Yrv-z0Vedw-TM2JOu-32" value="&lt;b&gt;&lt;u&gt;Card number&lt;/u&gt;&lt;/b&gt;" style="ellipse;whiteSpace=wrap;html=1;" parent="1" vertex="1">
          <mxGeometry x="810" y="527" width="120" height="80" as="geometry" />
        </mxCell>
        <mxCell id="2X9Yrv-z0Vedw-TM2JOu-35" value="Has" style="rhombus;whiteSpace=wrap;html=1;" parent="1" vertex="1">
          <mxGeometry x="605.5" y="360" width="95" height="90" as="geometry" />
        </mxCell>
        <mxCell id="2X9Yrv-z0Vedw-TM2JOu-40" value="Family name" style="ellipse;whiteSpace=wrap;html=1;" parent="1" vertex="1">
          <mxGeometry x="990" y="31" width="120" height="80" as="geometry" />
        </mxCell>
        <mxCell id="2X9Yrv-z0Vedw-TM2JOu-56" value="Cardholder name" style="ellipse;whiteSpace=wrap;html=1;" parent="1" vertex="1">
          <mxGeometry x="305" y="527" width="120" height="80" as="geometry" />
        </mxCell>
        <mxCell id="2X9Yrv-z0Vedw-TM2JOu-63" style="edgeStyle=orthogonalEdgeStyle;rounded=0;orthogonalLoop=1;jettySize=auto;html=1;exitX=0;exitY=0.5;exitDx=0;exitDy=0;entryX=0.5;entryY=0;entryDx=0;entryDy=0;" parent="1" source="2X9Yrv-z0Vedw-TM2JOu-58" edge="1">
          <mxGeometry relative="1" as="geometry">
            <mxPoint x="470" y="740" as="targetPoint" />
          </mxGeometry>
        </mxCell>
        <mxCell id="2X9Yrv-z0Vedw-TM2JOu-64" style="edgeStyle=orthogonalEdgeStyle;rounded=0;orthogonalLoop=1;jettySize=auto;html=1;exitX=0.5;exitY=1;exitDx=0;exitDy=0;" parent="1" source="2X9Yrv-z0Vedw-TM2JOu-58" edge="1">
          <mxGeometry relative="1" as="geometry">
            <mxPoint x="620" y="760" as="targetPoint" />
          </mxGeometry>
        </mxCell>
        <mxCell id="2X9Yrv-z0Vedw-TM2JOu-58" value="Expire Date" style="ellipse;whiteSpace=wrap;html=1;" parent="1" vertex="1">
          <mxGeometry x="560" y="660" width="120" height="60" as="geometry" />
        </mxCell>
        <mxCell id="JZ1rHJzvfXywaTb7HaF5-1" style="edgeStyle=orthogonalEdgeStyle;rounded=0;orthogonalLoop=1;jettySize=auto;html=1;entryX=0.85;entryY=0.978;entryDx=0;entryDy=0;entryPerimeter=0;" parent="1" source="2X9Yrv-z0Vedw-TM2JOu-60" target="2X9Yrv-z0Vedw-TM2JOu-28" edge="1">
          <mxGeometry relative="1" as="geometry">
            <mxPoint x="800" y="650" as="targetPoint" />
          </mxGeometry>
        </mxCell>
        <mxCell id="2X9Yrv-z0Vedw-TM2JOu-60" value="CCV" style="ellipse;whiteSpace=wrap;html=1;" parent="1" vertex="1">
          <mxGeometry x="800" y="670" width="120" height="80" as="geometry" />
        </mxCell>
        <mxCell id="2X9Yrv-z0Vedw-TM2JOu-61" value="Year" style="ellipse;whiteSpace=wrap;html=1;" parent="1" vertex="1">
          <mxGeometry x="560" y="760" width="120" height="80" as="geometry" />
        </mxCell>
        <mxCell id="2X9Yrv-z0Vedw-TM2JOu-62" value="Month" style="ellipse;whiteSpace=wrap;html=1;" parent="1" vertex="1">
          <mxGeometry x="410" y="740" width="120" height="80" as="geometry" />
        </mxCell>
        <mxCell id="2X9Yrv-z0Vedw-TM2JOu-69" style="edgeStyle=orthogonalEdgeStyle;rounded=0;orthogonalLoop=1;jettySize=auto;html=1;exitX=0.5;exitY=0;exitDx=0;exitDy=0;entryX=0.44;entryY=1.013;entryDx=0;entryDy=0;entryPerimeter=0;" parent="1" source="2X9Yrv-z0Vedw-TM2JOu-12" target="2X9Yrv-z0Vedw-TM2JOu-11" edge="1">
          <mxGeometry relative="1" as="geometry" />
        </mxCell>
        <mxCell id="2X9Yrv-z0Vedw-TM2JOu-76" style="edgeStyle=orthogonalEdgeStyle;rounded=0;orthogonalLoop=1;jettySize=auto;html=1;exitX=0.5;exitY=1;exitDx=0;exitDy=0;entryX=0.5;entryY=0;entryDx=0;entryDy=0;" parent="1" source="2X9Yrv-z0Vedw-TM2JOu-71" target="2X9Yrv-z0Vedw-TM2JOu-73" edge="1">
          <mxGeometry relative="1" as="geometry">
            <Array as="points">
              <mxPoint x="70" y="520" />
              <mxPoint x="70" y="520" />
            </Array>
          </mxGeometry>
        </mxCell>
        <mxCell id="2X9Yrv-z0Vedw-TM2JOu-71" value="Start trip" style="rhombus;whiteSpace=wrap;html=1;" parent="1" vertex="1">
          <mxGeometry x="25" y="420" width="90" height="90" as="geometry" />
        </mxCell>
        <mxCell id="2X9Yrv-z0Vedw-TM2JOu-83" style="edgeStyle=orthogonalEdgeStyle;rounded=0;orthogonalLoop=1;jettySize=auto;html=1;exitX=0;exitY=0.5;exitDx=0;exitDy=0;entryX=0.5;entryY=0;entryDx=0;entryDy=0;" parent="1" source="2X9Yrv-z0Vedw-TM2JOu-73" target="2X9Yrv-z0Vedw-TM2JOu-79" edge="1">
          <mxGeometry relative="1" as="geometry">
            <Array as="points">
              <mxPoint x="-10" y="600" />
              <mxPoint x="-160" y="600" />
            </Array>
          </mxGeometry>
        </mxCell>
        <mxCell id="2X9Yrv-z0Vedw-TM2JOu-84" style="edgeStyle=orthogonalEdgeStyle;rounded=0;orthogonalLoop=1;jettySize=auto;html=1;exitX=1;exitY=0.5;exitDx=0;exitDy=0;entryX=0.5;entryY=0;entryDx=0;entryDy=0;" parent="1" source="2X9Yrv-z0Vedw-TM2JOu-73" target="2X9Yrv-z0Vedw-TM2JOu-80" edge="1">
          <mxGeometry relative="1" as="geometry" />
        </mxCell>
        <mxCell id="2X9Yrv-z0Vedw-TM2JOu-91" style="edgeStyle=orthogonalEdgeStyle;rounded=0;orthogonalLoop=1;jettySize=auto;html=1;entryX=0.5;entryY=0;entryDx=0;entryDy=0;" parent="1" source="2X9Yrv-z0Vedw-TM2JOu-73" target="2X9Yrv-z0Vedw-TM2JOu-88" edge="1">
          <mxGeometry relative="1" as="geometry" />
        </mxCell>
        <mxCell id="JZ1rHJzvfXywaTb7HaF5-3" style="edgeStyle=orthogonalEdgeStyle;rounded=0;orthogonalLoop=1;jettySize=auto;html=1;exitX=0;exitY=0.25;exitDx=0;exitDy=0;entryX=0.5;entryY=0;entryDx=0;entryDy=0;" parent="1" source="2X9Yrv-z0Vedw-TM2JOu-73" target="JZ1rHJzvfXywaTb7HaF5-2" edge="1">
          <mxGeometry relative="1" as="geometry" />
        </mxCell>
        <mxCell id="2X9Yrv-z0Vedw-TM2JOu-73" value="Trip" style="rounded=0;whiteSpace=wrap;html=1;" parent="1" vertex="1">
          <mxGeometry x="-10" y="560" width="160" height="60" as="geometry" />
        </mxCell>
        <mxCell id="2X9Yrv-z0Vedw-TM2JOu-81" style="edgeStyle=orthogonalEdgeStyle;rounded=0;orthogonalLoop=1;jettySize=auto;html=1;exitX=0.5;exitY=0;exitDx=0;exitDy=0;entryX=0.25;entryY=1;entryDx=0;entryDy=0;" parent="1" source="2X9Yrv-z0Vedw-TM2JOu-78" target="2X9Yrv-z0Vedw-TM2JOu-73" edge="1">
          <mxGeometry relative="1" as="geometry" />
        </mxCell>
        <mxCell id="2X9Yrv-z0Vedw-TM2JOu-78" value="From" style="ellipse;whiteSpace=wrap;html=1;" parent="1" vertex="1">
          <mxGeometry x="-90" y="660" width="120" height="80" as="geometry" />
        </mxCell>
        <mxCell id="2X9Yrv-z0Vedw-TM2JOu-79" value="To" style="ellipse;whiteSpace=wrap;html=1;" parent="1" vertex="1">
          <mxGeometry x="-220" y="640" width="120" height="80" as="geometry" />
        </mxCell>
        <mxCell id="2X9Yrv-z0Vedw-TM2JOu-80" value="GPS" style="ellipse;whiteSpace=wrap;html=1;" parent="1" vertex="1">
          <mxGeometry x="210" y="640" width="120" height="80" as="geometry" />
        </mxCell>
        <mxCell id="2X9Yrv-z0Vedw-TM2JOu-85" value="Start trip" style="rhombus;whiteSpace=wrap;html=1;direction=south;" parent="1" vertex="1">
          <mxGeometry x="30" y="425" width="80" height="80" as="geometry" />
        </mxCell>
        <mxCell id="2X9Yrv-z0Vedw-TM2JOu-86" value="Full or Not" style="ellipse;whiteSpace=wrap;html=1;" parent="1" vertex="1">
          <mxGeometry x="90" y="660" width="120" height="80" as="geometry" />
        </mxCell>
        <mxCell id="2X9Yrv-z0Vedw-TM2JOu-87" style="edgeStyle=orthogonalEdgeStyle;rounded=0;orthogonalLoop=1;jettySize=auto;html=1;entryX=0.75;entryY=1;entryDx=0;entryDy=0;" parent="1" source="2X9Yrv-z0Vedw-TM2JOu-86" target="2X9Yrv-z0Vedw-TM2JOu-73" edge="1">
          <mxGeometry relative="1" as="geometry" />
        </mxCell>
        <mxCell id="2X9Yrv-z0Vedw-TM2JOu-95" style="edgeStyle=orthogonalEdgeStyle;rounded=0;orthogonalLoop=1;jettySize=auto;html=1;exitX=0;exitY=0.5;exitDx=0;exitDy=0;entryX=1;entryY=0.5;entryDx=0;entryDy=0;" parent="1" source="2X9Yrv-z0Vedw-TM2JOu-88" target="2X9Yrv-z0Vedw-TM2JOu-94" edge="1">
          <mxGeometry relative="1" as="geometry" />
        </mxCell>
        <mxCell id="k1bUdxOQ1gEnFQlKqckh-3" style="edgeStyle=orthogonalEdgeStyle;rounded=0;orthogonalLoop=1;jettySize=auto;html=1;exitX=0;exitY=0;exitDx=0;exitDy=0;entryX=1;entryY=0.5;entryDx=0;entryDy=0;" parent="1" source="2X9Yrv-z0Vedw-TM2JOu-88" target="k1bUdxOQ1gEnFQlKqckh-2" edge="1">
          <mxGeometry relative="1" as="geometry" />
        </mxCell>
        <mxCell id="k1bUdxOQ1gEnFQlKqckh-5" style="edgeStyle=orthogonalEdgeStyle;rounded=0;orthogonalLoop=1;jettySize=auto;html=1;exitX=0;exitY=1;exitDx=0;exitDy=0;entryX=1;entryY=0.5;entryDx=0;entryDy=0;" parent="1" source="2X9Yrv-z0Vedw-TM2JOu-88" target="k1bUdxOQ1gEnFQlKqckh-1" edge="1">
          <mxGeometry relative="1" as="geometry" />
        </mxCell>
        <mxCell id="2X9Yrv-z0Vedw-TM2JOu-88" value="Request a&amp;nbsp;&lt;br&gt;trip" style="rhombus;whiteSpace=wrap;html=1;" parent="1" vertex="1">
          <mxGeometry x="10" y="850" width="120" height="120" as="geometry" />
        </mxCell>
        <mxCell id="2X9Yrv-z0Vedw-TM2JOu-89" value="Request a&lt;br&gt;trip" style="rhombus;whiteSpace=wrap;html=1;" parent="1" vertex="1">
          <mxGeometry x="20" y="860" width="100" height="100" as="geometry" />
        </mxCell>
        <mxCell id="2X9Yrv-z0Vedw-TM2JOu-94" value="money" style="ellipse;whiteSpace=wrap;html=1;" parent="1" vertex="1">
          <mxGeometry x="-150" y="880" width="100" height="60" as="geometry" />
        </mxCell>
        <mxCell id="JZ1rHJzvfXywaTb7HaF5-2" value="is traveling" style="ellipse;whiteSpace=wrap;html=1;" parent="1" vertex="1">
          <mxGeometry x="-350" y="640" width="120" height="80" as="geometry" />
        </mxCell>
        <mxCell id="k1bUdxOQ1gEnFQlKqckh-1" value="is accepted" style="ellipse;whiteSpace=wrap;html=1;" parent="1" vertex="1">
          <mxGeometry x="-150" y="950" width="110" height="70" as="geometry" />
        </mxCell>
        <mxCell id="k1bUdxOQ1gEnFQlKqckh-2" value="is cach" style="ellipse;whiteSpace=wrap;html=1;" parent="1" vertex="1">
          <mxGeometry x="-155" y="800" width="115" height="70" as="geometry" />
        </mxCell>
      </root>
    </mxGraphModel>
  </diagram>
</mxfile>
